<svg id="SvgjsSvg1033" width="360" height="275" xmlns="http://www.w3.org/2000/svg" version="1.1" xmlns:xlink="http://www.w3.org/1999/xlink" xmlns:svgjs="http://svgjs.com/svgjs"><defs id="SvgjsDefs1034"><svg width="128px" height="128px" old_width="133px" old_height="133px" old_old_width="138px" old_old_height="138px" old_old_old_width="133px" old_old_old_height="133px" old_old_old_old_width="128px" old_old_old_old_height="128px" xmlns="http://www.w3.org/2000/svg" xmlns:xlink="http://www.w3.org/1999/xlink" version="1.2" baseProfile="tiny" x="0px" y="0px" viewBox="0 0 100 100" id="a1491491485235"><path d="M58.232,43.232l-2.946,2.946L47.5,53.965l-4.672-4.672l-1.061-1.061c-0.977-0.977-2.559-0.977-3.535,0   s-0.977,2.559,0,3.535l7.5,7.5C46.221,59.756,46.86,60,47.5,60s1.279-0.244,1.768-0.732l12.5-12.5c0.977-0.977,0.977-2.559,0-3.535   S59.209,42.256,58.232,43.232z"></path><path d="M86.768,40.732c-0.977-0.977-2.559-0.977-3.535,0s-0.977,2.559,0,3.535l3.232,3.232H72.358   c-0.481-4.333-2.198-8.296-4.789-11.533l9.932-9.932V30c0,1.381,1.119,2.5,2.5,2.5s2.5-1.119,2.5-2.5V20c0-1.381-1.119-2.5-2.5-2.5   H70c-1.381,0-2.5,1.119-2.5,2.5s1.119,2.5,2.5,2.5h3.965l-9.932,9.932c-3.237-2.591-7.2-4.308-11.533-4.789V13.535l3.232,3.232   C56.221,17.256,56.86,17.5,57.5,17.5s1.279-0.244,1.768-0.732c0.977-0.977,0.977-2.559,0-3.535l-7.5-7.5   c-0.977-0.977-2.559-0.977-3.535,0l-7.5,7.5c-0.977,0.977-0.977,2.559,0,3.535s2.559,0.977,3.535,0l3.232-3.232v14.107   c-4.333,0.481-8.296,2.198-11.533,4.789L26.035,22.5H30c1.381,0,2.5-1.119,2.5-2.5s-1.119-2.5-2.5-2.5H20   c-1.381,0-2.5,1.119-2.5,2.5v10c0,1.381,1.119,2.5,2.5,2.5s2.5-1.119,2.5-2.5v-3.965l9.932,9.932   c-2.591,3.237-4.308,7.2-4.789,11.533H13.535l3.232-3.232c0.977-0.977,0.977-2.559,0-3.535s-2.559-0.977-3.535,0l-7.5,7.5   c-0.977,0.977-0.977,2.559,0,3.535l7.5,7.5C13.721,59.756,14.36,60,15,60s1.279-0.244,1.768-0.732c0.977-0.977,0.977-2.559,0-3.535   L13.535,52.5h14.107c0.481,4.333,2.198,8.296,4.789,11.533L22.5,73.965V70c0-1.381-1.119-2.5-2.5-2.5s-2.5,1.119-2.5,2.5v10   c0,1.381,1.119,2.5,2.5,2.5h10c1.381,0,2.5-1.119,2.5-2.5s-1.119-2.5-2.5-2.5h-3.965l9.932-9.932   c3.237,2.591,7.2,4.308,11.533,4.789v14.107l-3.232-3.232c-0.977-0.977-2.559-0.977-3.535,0s-0.977,2.559,0,3.535l7.5,7.5   C48.721,94.756,49.36,95,50,95s1.279-0.244,1.768-0.732l7.5-7.5c0.977-0.977,0.977-2.559,0-3.535s-2.559-0.977-3.535,0L52.5,86.465   V72.358c4.333-0.481,8.296-2.198,11.533-4.789l9.932,9.932H70c-1.381,0-2.5,1.119-2.5,2.5s1.119,2.5,2.5,2.5h10   c1.381,0,2.5-1.119,2.5-2.5V70c0-1.381-1.119-2.5-2.5-2.5s-2.5,1.119-2.5,2.5v3.965l-9.932-9.932   c2.591-3.237,4.308-7.2,4.789-11.533h14.107l-3.232,3.232c-0.977,0.977-0.977,2.559,0,3.535C83.721,59.756,84.36,60,85,60   s1.279-0.244,1.768-0.732l7.5-7.5c0.977-0.977,0.977-2.559,0-3.535L86.768,40.732z M50,67.5c-9.649,0-17.5-7.851-17.5-17.5   S40.351,32.5,50,32.5S67.5,40.351,67.5,50S59.649,67.5,50,67.5z"></path></svg><!--?xml version="1.0"?-->
<svg width="847.82688px" height="269.4768px" id="t1491491485235"><path fill="#ffffff" d="M59.7208,51.2772c0-8.0272-6.92-11.4872-13.7016-11.4872c-6.92,0-13.7016,3.6676-13.7016,11.764s6.92,11.764,13.7708,11.764c6.7816,0,13.6324-4.2904,13.6324-12.0408z M67.1944,51.208c0,12.1792-10.38,19.376-21.2444,19.376s-21.106-7.0584-21.106-19.1684c0-12.1792,10.4492-18.9608,21.1752-18.9608c10.7952,0,21.1752,6.2972,21.1752,18.7532z M121.08736,33.6312l-3.5292,5.7436l0,30.102l-7.8196,0l0-20.9676l-12.6636,16.8848l-12.6636-16.8848l0,20.9676l-7.8196,0l0-30.102l-3.5292-5.7436l8.7192,0l15.2932,20.2756l15.2932-20.2756l8.7192,0z M125.91752,33.6312l8.9268,0l21.6596,24.912l0-24.912l7.1276,0l0,35.8456l-7.1276,0l-19.9296-23.3204l0,23.3204l-7.1276,0l0-30.5172z M184.51608,69.4768l-7.0584,0l0-35.8456l7.0584,0l0,35.8456z M226.57584,59.512l4.152,5.9512c-3.9444,3.3908-9.2728,5.1208-14.7396,5.1208c-10.8644,0-21.106-7.0584-21.106-19.1684c0-12.1792,10.4492-18.9608,21.1752-18.9608c5.2592,0,10.4492,1.5224,14.3936,4.498l-4.7748,5.536c-2.6988-1.8684-6.228-2.8372-9.6188-2.8372c-6.92,0-13.6324,3.806-13.6324,11.9024s6.8508,11.8332,13.7016,11.8332c3.7368,0,7.6812-1.384,10.4492-3.8752z M271.8188,51.2772c0-8.0272-6.92-11.4872-13.7016-11.4872c-6.92,0-13.7016,3.6676-13.7016,11.764s6.92,11.764,13.7708,11.764c6.7816,0,13.6324-4.2904,13.6324-12.0408z M279.2924,51.208c0,12.1792-10.38,19.376-21.2444,19.376s-21.106-7.0584-21.106-19.1684c0-12.1792,10.4492-18.9608,21.1752-18.9608c10.7952,0,21.1752,6.2972,21.1752,18.7532z M307.37376,40.7588l-7.1276,0l0,21.5212l7.1276,0c6.92,0,10.8644-3.9444,10.8644-10.8644c0-6.9892-3.9444-10.6568-10.8644-10.6568z M288.34376,40.7588l-3.1832-7.1276l22.2132,0c10.7952,0,18.1304,6.228,18.1304,17.646c0,11.1412-7.1968,18.1996-18.1304,18.1996l-14.6012,0l0-28.718l-4.4288,0z M342.92872,56.6056l0,5.6744l22.49,0l0,7.1968l-29.5484,0l0-35.8456l28.2336,0l0,7.1276l-21.1752,0l0,8.7192c3.114-1.7992,7.0584-2.076,11.2104-2.076l5.2592,0l0,7.1276l-5.2592,0c-6.574,0-8.0964,0.4152-11.2104,2.076z"></path></svg>
</defs><use id="SvgjsUse1035" xlink:href="#t1491491485235" fill="#ffffff" x="-15.131349563598633" y="148.23676300048828"></use><use id="SvgjsUse1036" xlink:href="#a1491491485235" fill="#ffffff" x="116" y="49.09155988693237"></use></svg>