<?xml version="1.0" encoding="UTF-8" standalone="no"?>
<svg width="964px" height="236px" viewBox="0 0 964 236" version="1.1" xmlns="http://www.w3.org/2000/svg" xmlns:xlink="http://www.w3.org/1999/xlink">
<g id="logo-omnicode" fill-rule="evenodd" fill="white">
  <path d="M68,106.001795 C68,85.0139832 85.020279,68 106.001795,68 L129.998205,68 C150.986017,68 168,85.020279 168,106.001795 L168,129.998205 C168,150.986017 150.979721,168 129.998205,168 L106.001795,168 C85.0139832,168 68,150.979721 68,129.998205 L68,106.001795 L68,106.001795 L68,106.001795 Z M91.0937195,21.922226 C92.1465291,9.81491488 102.848547,0 115.003489,0 L120.996511,0 C133.148702,0 143.853194,9.81173227 144.906281,21.922226 L145.093719,24.077774 C146.146529,36.1850851 137.144669,46 125.000326,46 L110.999674,46 C98.8495894,46 89.8531941,36.1882677 90.9062805,24.077774 L91.0937195,21.922226 L91.0937195,21.922226 L91.0937195,21.922226 Z M190,110.999674 C190,98.8495894 199.811732,89.8531941 211.922226,90.9062805 L214.077774,91.0937195 C226.185085,92.1465291 236,102.848547 236,115.003489 L236,120.996511 C236,133.148702 226.188268,143.853194 214.077774,144.906281 L211.922226,145.093719 C199.814915,146.146529 190,137.144669 190,125.000326 L190,110.999674 L190,110.999674 L190,110.999674 Z M7.27509392e-14,115.003489 C7.61913081e-14,102.851298 9.81173227,92.1468059 21.922226,91.0937195 L24.077774,90.9062805 C36.1850851,89.8534709 46,98.8553307 46,110.999674 L46,125.000326 C46,137.150411 36.1882677,146.146806 24.077774,145.093719 L21.922226,144.906281 C9.81491488,143.853471 6.76131259e-14,133.151453 7.10542736e-14,120.996511 L7.27509392e-14,115.003489 L7.27509392e-14,115.003489 L7.27509392e-14,115.003489 Z M19,36.9961575 C19,27.0571542 27.0585001,19 36.9961575,19 L41.0038425,19 C50.9428458,19 58.3490447,27.0284489 57.5450379,36.9445322 L57.4549621,38.0554678 C56.6514087,47.9659593 47.9715511,56.6509553 38.0554678,57.4549621 L36.9445322,57.5450379 C27.0340407,58.3485913 19,50.9414999 19,41.0038425 L19,36.9961575 L19,36.9961575 L19,36.9961575 Z M178.454962,36.9445322 C177.651409,27.0340407 185.0585,19 194.996158,19 L199.003842,19 C208.942846,19 217,27.0585001 217,36.9961575 L217,41.0038425 C217,50.9428458 208.971551,58.3490447 199.055468,57.5450379 L197.944532,57.4549621 C188.034041,56.6514087 179.349045,47.9715511 178.545038,38.0554678 L178.454962,36.9445322 L178.454962,36.9445322 L178.454962,36.9445322 Z M178.545038,197.944532 C179.348591,188.034041 188.028449,179.349045 197.944532,178.545038 L199.055468,178.454962 C208.965959,177.651409 217,185.0585 217,194.996158 L217,199.003842 C217,208.942846 208.9415,217 199.003842,217 L194.996158,217 C185.057154,217 177.650955,208.971551 178.454962,199.055468 L178.545038,197.944532 L178.545038,197.944532 L178.545038,197.944532 Z M19,194.996158 C19,185.057154 27.0284489,177.650955 36.9445322,178.454962 L38.0554678,178.545038 C47.9659593,179.348591 56.6509553,188.028449 57.4549621,197.944532 L57.5450379,199.055468 C58.3485913,208.965959 50.9414999,217 41.0038425,217 L36.9961575,217 C27.0571542,217 19,208.9415 19,199.003842 L19,194.996158 L19,194.996158 L19,194.996158 Z M90.9062805,211.922226 C89.8534709,199.814915 98.8553307,190 110.999674,190 L125.000326,190 C137.150411,190 146.146806,199.811732 145.093719,211.922226 L144.906281,214.077774 C143.853471,226.185085 133.151453,236 120.996511,236 L115.003489,236 C102.851298,236 92.1468059,226.188268 91.0937195,214.077774 L90.9062805,211.922226 L90.9062805,211.922226 L90.9062805,211.922226 Z" id="logo-omnicode-glyph"></path>
  <path d="M362.773438,119.734375 C362.773438,125.453154 361.882821,130.726538 360.101562,135.554688 C358.320304,140.382837 355.742204,144.531233 352.367188,148 C348.992171,151.468767 344.960961,154.128897 340.273438,155.980469 C335.585914,157.832041 330.312529,158.757812 324.453125,158.757812 C318.640596,158.757812 313.414086,157.820322 308.773438,155.945312 C304.132789,154.070303 300.113298,151.386736 296.714844,147.894531 C293.316389,144.402326 290.73829,140.277368 288.980469,135.519531 C287.222647,130.761695 286.34375,125.500029 286.34375,119.734375 C286.34375,113.921846 287.234366,108.601587 289.015625,103.773438 C290.796884,98.9452884 293.351546,94.8203296 296.679688,91.3984375 C300.007829,87.9765454 304.039039,85.339853 308.773438,83.4882812 C313.507836,81.6367095 318.734346,80.7109375 324.453125,80.7109375 C330.265654,80.7109375 335.539039,81.6484281 340.273438,83.5234375 C345.007836,85.3984469 349.062483,88.0702952 352.4375,91.5390625 C355.812517,95.0078298 358.378897,99.1327886 360.136719,103.914062 C361.89454,108.695336 362.773438,113.968721 362.773438,119.734375 L362.773438,119.734375 L362.773438,119.734375 Z M343.507812,119.734375 C343.507812,111.906211 341.785173,105.812522 338.339844,101.453125 C334.894514,97.0937282 330.265654,94.9140625 324.453125,94.9140625 C320.703106,94.9140625 317.398452,95.886709 314.539062,97.8320312 C311.679673,99.7773535 309.47657,102.648419 307.929688,106.445312 C306.382805,110.242206 305.609375,114.67185 305.609375,119.734375 C305.609375,124.750025 306.371086,129.132794 307.894531,132.882812 C309.417976,136.632831 311.597642,139.503896 314.433594,141.496094 C317.269545,143.488291 320.609356,144.484375 324.453125,144.484375 C330.265654,144.484375 334.894514,142.292991 338.339844,137.910156 C341.785173,133.527322 343.507812,127.468789 343.507812,119.734375 L343.507812,119.734375 L343.507812,119.734375 Z M441.734375,121.140625 L441.734375,146.664062 C441.734375,150.695333 440.820322,153.71874 438.992188,155.734375 C437.164053,157.75001 434.750015,158.757812 431.75,158.757812 C428.843735,158.757812 426.48829,157.75001 424.683594,155.734375 C422.878897,153.71874 421.976562,150.695333 421.976562,146.664062 L421.976562,116.078125 C421.976562,111.249976 421.812502,107.500013 421.484375,104.828125 C421.156248,102.156237 420.265632,99.9648523 418.8125,98.2539062 C417.359368,96.5429602 415.062516,95.6875 411.921875,95.6875 C405.640594,95.6875 401.503916,97.8437284 399.511719,102.15625 C397.519521,106.468772 396.523438,112.65621 396.523438,120.71875 L396.523438,146.664062 C396.523438,150.648457 395.621103,153.660146 393.816406,155.699219 C392.01171,157.738291 389.632827,158.757812 386.679688,158.757812 C383.773423,158.757812 381.394541,157.738291 379.542969,155.699219 C377.691397,153.660146 376.765625,150.648457 376.765625,146.664062 L376.765625,91.75 C376.765625,88.140607 377.597648,85.3984469 379.261719,83.5234375 C380.92579,81.6484281 383.117174,80.7109375 385.835938,80.7109375 C388.460951,80.7109375 390.652335,81.589835 392.410156,83.3476562 C394.167978,85.1054775 395.046875,87.5312345 395.046875,90.625 L395.046875,92.453125 C398.375017,88.4687301 401.937481,85.5390719 405.734375,83.6640625 C409.531269,81.7890531 413.749977,80.8515625 418.390625,80.8515625 C423.218774,80.8515625 427.36717,81.8124904 430.835938,83.734375 C434.304705,85.6562596 437.164051,88.5624805 439.414062,92.453125 C442.648454,88.5156053 446.117169,85.5976657 449.820313,83.6992188 C453.523456,81.8007718 457.624978,80.8515625 462.125,80.8515625 C467.375026,80.8515625 471.898419,81.8828022 475.695313,83.9453125 C479.492206,86.0078228 482.328116,88.9609183 484.203125,92.8046875 C485.843758,96.2734548 486.664063,101.734338 486.664063,109.1875 L486.664063,146.664062 C486.664063,150.695333 485.750009,153.71874 483.921875,155.734375 C482.093741,157.75001 479.679703,158.757812 476.679688,158.757812 C473.773423,158.757812 471.394541,157.738291 469.542969,155.699219 C467.691397,153.660146 466.765625,150.648457 466.765625,146.664062 L466.765625,114.390625 C466.765625,110.265604 466.589846,106.96095 466.238281,104.476562 C465.886717,101.992175 464.937508,99.9062584 463.390625,98.21875 C461.843742,96.5312416 459.500016,95.6875 456.359375,95.6875 C453.828112,95.6875 451.425793,96.4374925 449.152344,97.9375 C446.878895,99.4375075 445.109381,101.453112 443.84375,103.984375 C442.437493,107.218766 441.734375,112.937459 441.734375,121.140625 L441.734375,121.140625 L441.734375,121.140625 Z M522.734375,91.328125 L522.734375,93.6484375 C526.109392,89.1952902 529.800761,85.9257917 533.808594,83.8398438 C537.816426,81.7538958 542.421849,80.7109375 547.625,80.7109375 C552.687525,80.7109375 557.210918,81.812489 561.195312,84.015625 C565.179707,86.218761 568.15624,89.3359173 570.125,93.3671875 C571.390631,95.7109492 572.210936,98.2421739 572.585938,100.960938 C572.960939,103.679701 573.148438,107.148416 573.148438,111.367188 L573.148438,147.085938 C573.148438,150.929707 572.26954,153.835928 570.511719,155.804688 C568.753897,157.773447 566.468764,158.757812 563.65625,158.757812 C560.796861,158.757812 558.476571,157.75001 556.695312,155.734375 C554.914054,153.71874 554.023438,150.835956 554.023438,147.085938 L554.023438,115.09375 C554.023438,108.765593 553.14454,103.925798 551.386719,100.574219 C549.628897,97.2226395 546.125026,95.546875 540.875,95.546875 C537.453108,95.546875 534.335952,96.5663961 531.523438,98.6054688 C528.710923,100.644541 526.648444,103.445295 525.335938,107.007812 C524.398433,109.867202 523.929688,115.210898 523.929688,123.039062 L523.929688,147.085938 C523.929688,150.976582 523.027353,153.894522 521.222656,155.839844 C519.41796,157.785166 517.085952,158.757812 514.226562,158.757812 C511.460924,158.757812 509.187509,157.75001 507.40625,155.734375 C505.624991,153.71874 504.734375,150.835956 504.734375,147.085938 L504.734375,91.609375 C504.734375,87.9531067 505.531242,85.2226653 507.125,83.4179688 C508.718758,81.6132722 510.898424,80.7109375 513.664062,80.7109375 C515.351571,80.7109375 516.874993,81.109371 518.234375,81.90625 C519.593757,82.703129 520.68359,83.8984295 521.503906,85.4921875 C522.324223,87.0859455 522.734375,89.0312385 522.734375,91.328125 L522.734375,91.328125 L522.734375,91.328125 Z M611.46875,91.609375 L611.46875,147.085938 C611.46875,150.929707 610.554697,153.835928 608.726562,155.804688 C606.898428,157.773447 604.578139,158.757812 601.765625,158.757812 C598.953111,158.757812 596.667978,157.75001 594.910156,155.734375 C593.152335,153.71874 592.273438,150.835956 592.273438,147.085938 L592.273438,92.171875 C592.273438,88.374981 593.152335,85.5156346 594.910156,83.59375 C596.667978,81.6718654 598.953111,80.7109375 601.765625,80.7109375 C604.578139,80.7109375 606.898428,81.6718654 608.726562,83.59375 C610.554697,85.5156346 611.46875,88.1874829 611.46875,91.609375 L611.46875,91.609375 L611.46875,91.609375 Z M601.976562,71.78125 C599.304674,71.78125 597.019541,70.9609457 595.121094,69.3203125 C593.222647,67.6796793 592.273438,65.35939 592.273438,62.359375 C592.273438,59.6406114 593.246084,57.4023525 595.191406,55.6445312 C597.136728,53.88671 599.398425,53.0078125 601.976562,53.0078125 C604.46095,53.0078125 606.664053,53.8046795 608.585938,55.3984375 C610.507822,56.9921955 611.46875,59.3124848 611.46875,62.359375 C611.46875,65.3125148 610.531259,67.6210854 608.65625,69.2851562 C606.781241,70.9492271 604.5547,71.78125 601.976562,71.78125 L601.976562,71.78125 L601.976562,71.78125 Z M700.132812,134.992188 C700.132812,137.382824 699.417976,139.937486 697.988281,142.65625 C696.558587,145.375014 694.378921,147.964831 691.449219,150.425781 C688.519517,152.886731 684.828147,154.86718 680.375,156.367188 C675.921853,157.867195 670.906278,158.617188 665.328125,158.617188 C653.468691,158.617188 644.210971,155.160191 637.554688,148.246094 C630.898404,141.331997 627.570312,132.062558 627.570312,120.4375 C627.570312,112.562461 629.093735,105.601593 632.140625,99.5546875 C635.187515,93.5077823 639.593721,88.8320478 645.359375,85.5273438 C651.125029,82.2226397 658.015585,80.5703125 666.03125,80.5703125 C671.000025,80.5703125 675.558573,81.2968677 679.707031,82.75 C683.855489,84.2031323 687.371079,86.0781135 690.253906,88.375 C693.136733,90.6718865 695.339836,93.1210807 696.863281,95.7226562 C698.386726,98.3242318 699.148438,100.749989 699.148438,103 C699.148438,105.296886 698.292977,107.24218 696.582031,108.835938 C694.871085,110.429695 692.796887,111.226562 690.359375,111.226562 C688.765617,111.226562 687.441412,110.81641 686.386719,109.996094 C685.332026,109.175777 684.148444,107.851572 682.835938,106.023438 C680.492176,102.46092 678.042982,99.7890714 675.488281,98.0078125 C672.933581,96.2265536 669.68752,95.3359375 665.75,95.3359375 C660.078097,95.3359375 655.50783,97.5507591 652.039062,101.980469 C648.570295,106.410178 646.835938,112.468712 646.835938,120.15625 C646.835938,123.765643 647.281246,127.082016 648.171875,130.105469 C649.062504,133.128921 650.351554,135.707021 652.039062,137.839844 C653.726571,139.972667 655.765613,141.589838 658.15625,142.691406 C660.546887,143.792974 663.171861,144.34375 666.03125,144.34375 C669.875019,144.34375 673.167955,143.453134 675.910156,141.671875 C678.652357,139.890616 681.078114,137.171893 683.1875,133.515625 C684.359381,131.359364 685.624993,129.671881 686.984375,128.453125 C688.343757,127.234369 690.007803,126.625 691.976562,126.625 C694.320324,126.625 696.265617,127.515616 697.8125,129.296875 C699.359383,131.078134 700.132812,132.976552 700.132812,134.992188 L700.132812,134.992188 L700.132812,134.992188 Z M788.726562,119.734375 C788.726562,125.453154 787.835946,130.726538 786.054688,135.554688 C784.273429,140.382837 781.695329,144.531233 778.320312,148 C774.945296,151.468767 770.914086,154.128897 766.226562,155.980469 C761.539039,157.832041 756.265654,158.757812 750.40625,158.757812 C744.593721,158.757812 739.367211,157.820322 734.726562,155.945312 C730.085914,154.070303 726.066423,151.386736 722.667969,147.894531 C719.269514,144.402326 716.691415,140.277368 714.933594,135.519531 C713.175772,130.761695 712.296875,125.500029 712.296875,119.734375 C712.296875,113.921846 713.187491,108.601587 714.96875,103.773438 C716.750009,98.9452884 719.304671,94.8203296 722.632812,91.3984375 C725.960954,87.9765454 729.992164,85.339853 734.726562,83.4882812 C739.460961,81.6367095 744.687471,80.7109375 750.40625,80.7109375 C756.218779,80.7109375 761.492164,81.6484281 766.226562,83.5234375 C770.960961,85.3984469 775.015608,88.0702952 778.390625,91.5390625 C781.765642,95.0078298 784.332022,99.1327886 786.089844,103.914062 C787.847665,108.695336 788.726562,113.968721 788.726562,119.734375 L788.726562,119.734375 L788.726562,119.734375 Z M769.460938,119.734375 C769.460938,111.906211 767.738298,105.812522 764.292969,101.453125 C760.847639,97.0937282 756.218779,94.9140625 750.40625,94.9140625 C746.656231,94.9140625 743.351577,95.886709 740.492188,97.8320312 C737.632798,99.7773535 735.429695,102.648419 733.882812,106.445312 C732.33593,110.242206 731.5625,114.67185 731.5625,119.734375 C731.5625,124.750025 732.324211,129.132794 733.847656,132.882812 C735.371101,136.632831 737.550767,139.503896 740.386719,141.496094 C743.22267,143.488291 746.562481,144.484375 750.40625,144.484375 C756.218779,144.484375 760.847639,142.292991 764.292969,137.910156 C767.738298,133.527322 769.460938,127.468789 769.460938,119.734375 L769.460938,119.734375 L769.460938,119.734375 Z M856.4375,147.789062 L856.4375,145.890625 C853.859362,148.843765 851.316419,151.246084 848.808594,153.097656 C846.300769,154.949228 843.582046,156.355464 840.652344,157.316406 C837.722642,158.277349 834.523455,158.757812 831.054688,158.757812 C826.460915,158.757812 822.207051,157.785166 818.292969,155.839844 C814.378887,153.894522 810.992202,151.117206 808.132812,147.507812 C805.273423,143.898419 803.105476,139.656274 801.628906,134.78125 C800.152336,129.906226 799.414062,124.632841 799.414062,118.960938 C799.414062,106.960877 802.343721,97.6094085 808.203125,90.90625 C814.062529,84.2030915 821.77339,80.8515625 831.335938,80.8515625 C836.867215,80.8515625 841.531231,81.8007718 845.328125,83.6992188 C849.125019,85.5976657 852.828107,88.5156053 856.4375,92.453125 L856.4375,64.1171875 C856.4375,60.1796678 857.222648,57.2031351 858.792969,55.1875 C860.363289,53.1718649 862.601548,52.1640625 865.507812,52.1640625 C868.414077,52.1640625 870.652336,53.0898345 872.222656,54.9414062 C873.792977,56.792978 874.578125,59.5234195 874.578125,63.1328125 L874.578125,147.789062 C874.578125,151.445331 873.734383,154.187491 872.046875,156.015625 C870.359367,157.843759 868.179701,158.757812 865.507812,158.757812 C862.882799,158.757812 860.714852,157.808603 859.003906,155.910156 C857.29296,154.011709 856.4375,151.304705 856.4375,147.789062 L856.4375,147.789062 L856.4375,147.789062 Z M818.679688,119.59375 C818.679688,124.796901 819.488273,129.226544 821.105469,132.882812 C822.722664,136.539081 824.937486,139.292959 827.75,141.144531 C830.562514,142.996103 833.632796,143.921875 836.960938,143.921875 C840.335954,143.921875 843.417955,143.042978 846.207031,141.285156 C848.996108,139.527335 851.222648,136.832049 852.886719,133.199219 C854.55079,129.566388 855.382812,125.031277 855.382812,119.59375 C855.382812,114.484349 854.55079,110.089862 852.886719,106.410156 C851.222648,102.73045 848.97267,99.9179785 846.136719,97.9726562 C843.300767,96.027334 840.195329,95.0546875 836.820312,95.0546875 C833.30467,95.0546875 830.164076,96.0507713 827.398438,98.0429688 C824.632799,100.035166 822.488289,102.894513 820.964844,106.621094 C819.441399,110.347675 818.679688,114.67185 818.679688,119.59375 L818.679688,119.59375 L818.679688,119.59375 Z M947.421875,124.445312 L909.875,124.445312 C909.921875,128.804709 910.800773,132.648421 912.511719,135.976562 C914.222665,139.304704 916.49608,141.812492 919.332031,143.5 C922.167983,145.187508 925.296858,146.03125 928.71875,146.03125 C931.015636,146.03125 933.113272,145.761721 935.011719,145.222656 C936.910166,144.683591 938.749991,143.839849 940.53125,142.691406 C942.312509,141.542963 943.953117,140.312507 945.453125,139 C946.953133,137.687493 948.898426,135.906261 951.289062,133.65625 C952.273442,132.812496 953.679678,132.390625 955.507812,132.390625 C957.476572,132.390625 959.070306,132.929682 960.289062,134.007812 C961.507819,135.085943 962.117188,136.609365 962.117188,138.578125 C962.117188,140.312509 961.437507,142.339832 960.078125,144.660156 C958.718743,146.98048 956.667982,149.207021 953.925781,151.339844 C951.18358,153.472667 947.738302,155.24218 943.589844,156.648438 C939.441386,158.054695 934.671902,158.757812 929.28125,158.757812 C916.953063,158.757812 907.367222,155.242223 900.523438,148.210938 C893.679653,141.179652 890.257812,131.640685 890.257812,119.59375 C890.257812,113.921847 891.101554,108.660181 892.789062,103.808594 C894.476571,98.957007 896.937484,94.7968923 900.171875,91.328125 C903.406266,87.8593577 907.390601,85.199228 912.125,83.3476562 C916.859399,81.4960845 922.109346,80.5703125 927.875,80.5703125 C935.375037,80.5703125 941.808567,82.1523279 947.175781,85.3164062 C952.542996,88.4804846 956.562487,92.5702874 959.234375,97.5859375 C961.906263,102.601588 963.242188,107.710911 963.242188,112.914062 C963.242188,117.742212 961.859389,120.871087 959.09375,122.300781 C956.328111,123.730476 952.437525,124.445312 947.421875,124.445312 L947.421875,124.445312 L947.421875,124.445312 Z M909.875,113.546875 L944.679688,113.546875 C944.210935,106.984342 942.441422,102.074235 939.371094,98.8164062 C936.300766,95.5585775 932.257838,93.9296875 927.242188,93.9296875 C922.460914,93.9296875 918.535172,95.5820147 915.464844,98.8867188 C912.394516,102.191423 910.531253,107.078093 909.875,113.546875 L909.875,113.546875 L909.875,113.546875 Z" id="logo-omnicode-text"></path>
</g>
</svg>
